<?xml version="1.0" encoding="utf-8"?>
<!-- Generator: Adobe Illustrator 16.0.0, SVG Export Plug-In . SVG Version: 6.00 Build 0)  -->
<!DOCTYPE svg PUBLIC "-//W3C//DTD SVG 1.1//EN" "http://www.w3.org/Graphics/SVG/1.1/DTD/svg11.dtd">
<svg version="1.1" id="타이틀" xmlns="http://www.w3.org/2000/svg" xmlns:xlink="http://www.w3.org/1999/xlink" x="0px" y="0px"
	 width="28.97px" height="36.319px" viewBox="0 0 28.97 36.319" enable-background="new 0 0 28.97 36.319" xml:space="preserve">
<g>
	<path fill="none" stroke="#FFFFFF" stroke-width="3" stroke-linecap="round" stroke-linejoin="round" d="M1.5,11.3v-4.9
		c0-0.677,0.139-1.321,0.386-1.907c0.248-0.587,0.606-1.113,1.05-1.559C3.38,2.49,3.908,2.132,4.494,1.886
		C5.08,1.637,5.725,1.5,6.4,1.5h4.043h4.042h4.042h4.043c0.677,0,1.321,0.137,1.908,0.386c0.586,0.246,1.114,0.604,1.557,1.048
		c0.443,0.445,0.802,0.972,1.05,1.559c0.249,0.586,0.384,1.23,0.384,1.907v5.879v5.881v5.88v5.881c0,0.675-0.135,1.321-0.384,1.906
		c-0.248,0.586-0.607,1.114-1.05,1.56c-0.443,0.441-0.971,0.801-1.557,1.047c-0.587,0.249-1.231,0.387-1.908,0.387h-4.043h-4.042
		h-4.042H6.4c-0.675,0-1.32-0.138-1.906-0.387c-0.586-0.246-1.114-0.605-1.558-1.047c-0.444-0.445-0.802-0.974-1.05-1.56
		C1.639,31.241,1.5,30.595,1.5,29.92v-4.9"/>
	<g>
		<polyline fill="none" stroke="#FFFFFF" stroke-width="3" stroke-linecap="round" stroke-linejoin="round" points="12.078,22.758 
			16.677,18.159 12.078,13.562 		"/>
		
			<line fill="none" stroke="#FFFFFF" stroke-width="3" stroke-linecap="round" stroke-linejoin="round" x1="15.501" y1="18.159" x2="1.623" y2="18.159"/>
	</g>
</g>
</svg>
