<?xml version="1.0" encoding="utf-8"?>
<!-- Generator: Adobe Illustrator 16.0.0, SVG Export Plug-In . SVG Version: 6.00 Build 0)  -->
<!DOCTYPE svg PUBLIC "-//W3C//DTD SVG 1.1//EN" "http://www.w3.org/Graphics/SVG/1.1/DTD/svg11.dtd">
<svg version="1.1" id="타이틀" xmlns="http://www.w3.org/2000/svg" xmlns:xlink="http://www.w3.org/1999/xlink" x="0px" y="0px"
	 width="41.002px" height="40.075px" viewBox="0 0 41.002 40.075" enable-background="new 0 0 41.002 40.075" xml:space="preserve">
<g>
	<path fill="none" stroke="#2B2B2B" stroke-width="3" stroke-linecap="round" stroke-linejoin="round" d="M34.868,4.744
		c0.641,0,1.249,0.129,1.804,0.364c0.555,0.235,1.054,0.573,1.474,0.994c0.419,0.419,0.758,0.918,0.993,1.473
		c0.235,0.555,0.364,1.164,0.364,1.804v6.14v6.141v6.141v6.141c0,0.64-0.129,1.249-0.364,1.804
		c-0.234,0.554-0.573,1.054-0.993,1.473c-0.42,0.419-0.919,0.758-1.474,0.993c-0.555,0.235-1.163,0.364-1.804,0.364h-7.183h-7.184
		h-7.183H6.135c-0.641,0-1.25-0.129-1.804-0.364c-0.554-0.235-1.054-0.574-1.473-0.993c-0.42-0.419-0.758-0.919-0.993-1.473
		C1.629,35.19,1.5,34.581,1.5,33.941v-6.141V21.66v-6.141v-6.14c0-0.641,0.129-1.25,0.365-1.804C2.099,7.02,2.438,6.521,2.857,6.102
		c0.419-0.42,0.919-0.759,1.473-0.994c0.555-0.234,1.163-0.364,1.804-0.364"/>
	<polyline fill="none" stroke="#2B2B2B" stroke-width="3" stroke-linecap="round" stroke-linejoin="round" points="15.171,4.744 
		20.501,4.744 25.831,4.744 	"/>
	<g>
		
			<line fill="none" stroke="#2B2B2B" stroke-width="3" stroke-linecap="round" stroke-linejoin="round" x1="10.537" y1="1.5" x2="10.537" y2="6.598"/>
		
			<line fill="none" stroke="#2B2B2B" stroke-width="3" stroke-linecap="round" stroke-linejoin="round" x1="30.465" y1="1.5" x2="30.465" y2="6.598"/>
	</g>
</g>
<polyline fill="none" stroke="#FF3E3E" stroke-width="3" stroke-linecap="round" stroke-linejoin="round" points="14.567,21.425 
	20.567,28.091 26.567,18.091 "/>
</svg>
